<?xml version="1.0" encoding="UTF-8"?>
<svg xmlns="http://www.w3.org/2000/svg" xmlns:xlink="http://www.w3.org/1999/xlink" width="30px" height="30px" viewBox="0 0 30 30" version="1.1">
<g id="surface1">
<path style=" stroke:none;fill-rule:nonzero;fill:rgb(0%,0%,0%);fill-opacity:1;" d="M 11 14 C 8.238281 14 6 11.761719 6 9 L 6 5 C 6 4.449219 6.449219 4 7 4 L 8 4 C 8.550781 4 9 3.550781 9 3 C 9 2.449219 8.550781 2 8 2 L 7 2 C 5.34375 2 4 3.34375 4 5 L 4 9 C 4.003906 11.292969 5.132812 13.4375 7.019531 14.738281 C 8.828125 16.332031 9.902344 18.59375 10 21 C 10 24.867188 13.132812 28 17 28 C 20.867188 28 24 24.867188 24 21 L 24 19.859375 C 26.140625 19.308594 27.425781 17.125 26.871094 14.988281 C 26.320312 12.847656 24.140625 11.5625 22 12.113281 C 19.859375 12.667969 18.574219 14.847656 19.128906 16.988281 C 19.492188 18.394531 20.589844 19.496094 22 19.859375 L 22 21 C 22 23.761719 19.761719 26 17 26 C 14.238281 26 12 23.761719 12 21 C 12.101562 18.589844 13.1875 16.328125 15 14.738281 C 16.878906 13.433594 18.003906 11.289062 18 9 L 18 5 C 18 3.34375 16.65625 2 15 2 L 14 2 C 13.449219 2 13 2.449219 13 3 C 13 3.550781 13.449219 4 14 4 L 15 4 C 15.550781 4 16 4.449219 16 5 L 16 9 C 16 11.761719 13.761719 14 11 14 M 23 18 C 21.894531 18 21 17.105469 21 16 C 21 14.894531 21.894531 14 23 14 C 24.105469 14 25 14.894531 25 16 C 25 17.105469 24.105469 18 23 18 Z M 23 18 "/>
</g>
</svg>
